HIERARCHY
ROOT RootJoint
{
    OFFSET   0.000000   0.000000   0.000000
    CHANNELS 6 Xposition Yposition Zposition Xrotation Yrotation Zrotation
    JOINT pelvis_lowerback
    {
        OFFSET   0.000000   0.093605   0.000000
        CHANNELS 3 Xrotation Yrotation Zrotation
        JOINT lowerback_torso
        {
            OFFSET   0.000000   0.100000   0.000000
            CHANNELS 3 Xrotation Yrotation Zrotation
            JOINT torso_head
            {
                OFFSET   0.000000   0.282350   0.000000
                CHANNELS 3 Xrotation Yrotation Zrotation
                End Site
                {
                    OFFSET   0.000000   0.192650   0.000000
                }
            }
            JOINT rTorso_Clavicle
            {
                OFFSET  -0.001000   0.157500   0.000000
                CHANNELS 3 Xrotation Yrotation Zrotation
                JOINT rShoulder
                {
                    OFFSET  -0.117647   0.000000   0.000000
                    CHANNELS 3 Xrotation Yrotation Zrotation
                    JOINT rElbow
                    {
                        OFFSET  -0.245000   0.000000   0.000000
                        CHANNELS 3 Xrotation Yrotation Zrotation
                        JOINT rWrist
                        {
                            OFFSET  -0.240000   0.000000   0.000000
                            CHANNELS 3 Xrotation Yrotation Zrotation
                            End Site
                            {
                                OFFSET  -0.116353  -0.002500   0.000000
                            }
                        }
                    }
                }
            }
            JOINT lTorso_Clavicle
            {
                OFFSET   0.001000   0.157500   0.000000
                CHANNELS 3 Xrotation Yrotation Zrotation
                JOINT lShoulder
                {
                    OFFSET   0.117647   0.000000   0.000000
                    CHANNELS 3 Xrotation Yrotation Zrotation
                    JOINT lElbow
                    {
                        OFFSET   0.245000   0.000000   0.000000
                        CHANNELS 3 Xrotation Yrotation Zrotation
                        JOINT lWrist
                        {
                            OFFSET   0.240000   0.000000   0.000000
                            CHANNELS 3 Xrotation Yrotation Zrotation
                            End Site
                            {
                                OFFSET   0.116353  -0.002500   0.000000
                            }
                        }
                    }
                }
            }
        }
    }
    JOINT rHip
    {
        OFFSET  -0.100000  -0.051395   0.000000
        CHANNELS 3 Xrotation Yrotation Zrotation
        JOINT rKnee
        {
            OFFSET   0.000000  -0.410000   0.000000
            CHANNELS 3 Xrotation Yrotation Zrotation
            JOINT rAnkle
            {
                OFFSET   0.000000  -0.390000   0.000000
                CHANNELS 3 Xrotation Yrotation Zrotation
                JOINT rToeJoint
                {
                    OFFSET   0.000000  -0.050000   0.130000
                    CHANNELS 3 Xrotation Yrotation Zrotation
                    End Site
                    {
                        OFFSET  -0.010000   0.002000   0.060000
                    }
                }
            }
        }
    }
    JOINT lHip
    {
        OFFSET   0.100000  -0.051395   0.000000
        CHANNELS 3 Xrotation Yrotation Zrotation
        JOINT lKnee
        {
            OFFSET   0.000000  -0.410000   0.000000
            CHANNELS 3 Xrotation Yrotation Zrotation
            JOINT lAnkle
            {
                OFFSET   0.000000  -0.390000   0.000000
                CHANNELS 3 Xrotation Yrotation Zrotation
                JOINT lToeJoint
                {
                    OFFSET   0.000000  -0.050000   0.130000
                    CHANNELS 3 Xrotation Yrotation Zrotation
                    End Site
                    {
                        OFFSET   0.010000   0.002000   0.060000
                    }
                }
            }
        }
    }
}
MOTION
Frames: 12
Frame Time:   0.008333
 -2.374253   0.909259   4.697928  -4.944765   5.379831   0.328659   9.554051   4.384389   0.255233   2.512419   0.267478   1.034688  -2.533672   0.552019   1.451079   1.358413   3.527414  12.739067   7.154328  13.823590  37.870941   0.000421  18.762079  -0.000509  11.224669   2.386015   1.592598   2.391539   0.449702 -13.545855  13.391012  -8.189083 -43.234713  -0.002048 -13.562230   0.000228   9.577624  -2.280421  -3.895545  13.802807   1.972648   4.376543   7.398769  -0.000029  -0.000247  -9.949076   4.546468  -5.002621  -9.180757  -0.000002   0.000007 -22.005223  -5.726082   1.396212  19.625395   0.000039   0.004019  -7.624021   3.638046  -1.433600  -0.462133   0.000089  -0.000092
 -2.373566   0.908259   4.702590  -4.860610   5.361946   0.341866   9.465305   4.429836   0.222873   2.569648   0.287830   1.046528  -2.542487   0.602626   1.453292   1.354938   3.575288  12.806890   7.126662  13.927513  37.911699   0.000400  18.807937  -0.000467  11.222988   2.387180   1.592848   2.370737   0.516165 -13.610015  13.466382  -8.147823 -43.311371  -0.002095 -13.245587   0.000329   9.581446  -2.226427  -3.882583  14.029189   1.921879   4.329951   7.471560  -0.000023  -0.000253 -10.320487   4.631489  -4.988916  -9.190043  -0.000002   0.000006 -22.120621  -5.737658   1.367810  18.222133  -0.000062   0.003680  -7.429531   3.502302  -1.481257  -0.520147   0.000004   0.000029
 -2.372843   0.907213   4.707329  -4.772222   5.347062   0.350553   9.372927   4.469635   0.194582   2.620739   0.305475   1.057082  -2.551297   0.650816   1.454105   1.355721   3.616999  12.876301   7.102826  14.023027  37.954725   0.000377  18.849750  -0.000423  11.221448   2.385289   1.603334   2.353438   0.580615 -13.671878  13.538343  -8.106953 -43.383272  -0.002089 -12.947325   0.000392   9.584985  -2.154568  -3.866153  14.257141   1.873939   4.286479   7.543886  -0.000017  -0.000255 -10.694719   4.711240  -4.973357  -9.204391  -0.000001   0.000005 -22.228769  -5.750700   1.349908  16.900899  -0.000077   0.003328  -7.248106   3.374377  -1.525370  -0.569621  -0.000047   0.000106
 -2.372083   0.906141   4.712136  -4.678758   5.333908   0.353820   9.280324   4.505580   0.170052   2.665181   0.320828   1.068124  -2.560639   0.695773   1.454604   1.359210   3.653921  12.945363   7.082042  14.110875  37.997870   0.000354  18.887982  -0.000380  11.219935   2.380790   1.619942   2.338178   0.641916 -13.731760  13.606010  -8.068304 -43.451425  -0.002042 -12.668520   0.000419   9.588571  -2.080709  -3.850569  14.484194   1.828812   4.246660   7.615440  -0.000012  -0.000254 -11.059947   4.785366  -4.956682  -9.238970  -0.000001   0.000004 -22.331887  -5.764100   1.341474  15.667426  -0.000050   0.002979  -7.079029   3.254868  -1.565879  -0.615608  -0.000078   0.000156
 -2.371284   0.905057   4.717006  -4.578797   5.321088   0.352883   9.188195   4.538258   0.148089   2.703453   0.334222   1.079225  -2.570239   0.737714   1.455032   1.364384   3.687054  13.012875   7.063628  14.192011  38.040289   0.000330  18.923125  -0.000340  11.218472   2.374540   1.640361   2.324036   0.699603 -13.789460  13.669070  -8.032362 -43.516018  -0.001967 -12.408373   0.000417   9.591934  -2.009898  -3.836423  14.707941   1.786259   4.208574   7.686542  -0.000006  -0.000252 -11.410724   4.854251  -4.938986  -9.300957  -0.000002   0.000005 -22.429605  -5.777429   1.339873  14.517667  -0.000010   0.002661  -6.921365   3.143259  -1.603108  -0.658370  -0.000096   0.000187
 -2.370443   0.903970   4.721937  -4.470965   5.307788   0.348698   9.096817   4.567887   0.127913   2.735885   0.345782   1.089844  -2.579925   0.776847   1.455410   1.370568   3.717034  13.077939   7.047117  14.267152  38.081383   0.000306  18.955573  -0.000303  11.217059   2.367332   1.663040   2.310495   0.753511 -13.844681  13.727520  -7.999245 -43.577078  -0.001872 -12.165859   0.000392   9.594981  -1.943777  -3.823488  14.926496   1.746040   4.170746   7.757274   0.000000  -0.000250 -11.744171   4.918207  -4.920280  -9.393999  -0.000002   0.000009 -22.521461  -5.790476   1.343104  13.446526   0.000027   0.002383  -6.774317   3.039023  -1.637359  -0.698158  -0.000104   0.000204
 -2.369559   0.902883   4.726926  -4.354071   5.293575   0.341861   9.006343   4.594585   0.109034   2.762775   0.355550   1.099629  -2.589601   0.813355   1.455731   1.377314   3.744277  13.139892   7.032197  14.336834  38.120695   0.000283  18.985620  -0.000270  11.215692   2.359657   1.686779   2.297241   0.803631 -13.897148  13.781497  -7.968915 -43.634591  -0.001764 -11.939912   0.000349   9.597689  -1.882871  -3.811365  15.138465   1.707933   4.132236   7.827523   0.000007  -0.000247 -12.058907   4.977509  -4.900561  -9.519648  -0.000002   0.000015 -22.607072  -5.803113   1.349803  12.448980   0.000053   0.002146  -6.637155   2.941672  -1.668898  -0.735200  -0.000107   0.000211
 -2.368606   0.901850   4.732054  -4.269732   5.257576   0.349568   8.907696   4.632134   0.076513   2.840056   0.380572   1.103619  -2.590882   0.857862   1.456199   1.373069   3.763869  13.171857   7.022759  14.406307  38.221117   0.000214  18.977364  -0.000208  11.195191   2.360182   1.694707   2.264969   0.874203 -13.935683  13.754141  -7.917593 -43.706530  -0.001645 -11.706432   0.000526   9.572166  -1.822777  -3.782006  15.355886   1.670996   4.071911   7.966472   0.000022  -0.000309 -12.354219   5.052524  -4.879455  -9.736851  -0.000003   0.000012 -22.691169  -5.808202   1.343592  11.716390   0.000040   0.002005  -6.393710   2.804276  -1.674633  -0.784454  -0.000100   0.000253
 -2.367582   0.900866   4.737307  -4.190283   5.204300   0.362077   8.806079   4.672027   0.039208   2.917148   0.407796   1.103224  -2.589361   0.900545   1.455363   1.377138   3.777233  13.208122   7.018443  14.467883  38.323189   0.000156  18.967288  -0.000158  11.175625   2.350385   1.724317   2.236362   0.945126 -13.972143  13.728976  -7.867856 -43.774201  -0.001525 -11.488485   0.000633   9.543841  -1.765401  -3.744187  15.572178   1.630894   4.001714   8.126464   0.000036  -0.000401 -12.611363   5.118772  -4.871050 -10.036002  -0.000041   0.000060 -22.751292  -5.812646   1.335933  11.071539   0.000014   0.001960  -6.162723   2.675596  -1.679495  -0.816387  -0.000089   0.000259
 -2.366514   0.899915   4.742667  -4.105801   5.163220   0.371245   8.700560   4.701487   0.003834   2.985629   0.427381   1.103620  -2.588730   0.940211   1.454115   1.387581   3.783832  13.246221   7.018287  14.521587  38.423074   0.000108  18.956156  -0.000119  11.156919   2.334212   1.766315   2.210524   1.012625 -14.005328  13.706128  -7.820684 -43.837219  -0.001404 -11.285000   0.000686   9.516495  -1.711021  -3.706797  15.784518   1.605626   3.927347   8.293353   0.000066  -0.000446 -12.845702   5.183445  -4.793966 -10.300690   0.000089   0.000056 -22.798520  -5.818070   1.328055  10.481705  -0.000020   0.001838  -5.946453   2.555147  -1.683526  -0.843861  -0.000079   0.000251
 -2.365378   0.898968   4.748105  -4.009945   5.104673   0.382585   8.592220   4.732721  -0.033990   3.043751   0.446993   1.100231  -2.589455   0.977505   1.452089   1.399843   3.787972  13.282240   7.019601  14.570395  38.518015   0.000072  18.945178  -0.000089  11.139128   2.315777   1.813976   2.187887   1.077702 -14.035400  13.685807  -7.775529 -43.896436  -0.001284 -11.094935   0.000688   9.489966  -1.659695  -3.672094  15.987262   1.566887   3.849167   8.460959   0.000079  -0.000524 -13.044400   5.238411  -4.783160 -10.724749   0.000018   0.000148 -22.834852  -5.821618   1.321606   9.936087  -0.000054   0.001799  -5.744537   2.443029  -1.686712  -0.869555  -0.000070   0.000243
 -2.364173   0.898017   4.753614  -3.902454   5.039657   0.392645   8.482749   4.759777  -0.069103   3.092454   0.463581   1.095274  -2.591268   1.012249   1.449784   1.412695   3.789973  13.314448   7.021836  14.614624  38.606129   0.000043  18.934467  -0.000067  11.122089   2.295984   1.861129   2.167023   1.139008 -14.063524  13.666990  -7.733206 -43.952173  -0.001165 -10.917641   0.000650   9.464409  -1.611580  -3.639841  16.182174   1.531410   3.765174   8.626178   0.000093  -0.000588 -13.223740   5.291584  -4.776548 -11.177477  -0.000071   0.000234 -22.863980  -5.825439   1.315939   9.430859  -0.000095   0.001775  -5.555980   2.338304  -1.689256  -0.893125  -0.000062   0.000233
